<svg width="17" height="17" viewBox="0 0 17 17" fill="none" xmlns="http://www.w3.org/2000/svg">
<path d="M12.8474 4.1044C12.7506 4.02169 12.6227 3.98545 12.4966 4.00534L6.98046 4.87631C6.76882 4.90972 6.61292 5.09216 6.61292 5.30644V7.04838V9.80644H5.74194C4.78144 9.80646 4 10.5228 4 11.4032C4 12.2837 4.78144 13 5.74194 13C6.70244 13 7.48388 12.2837 7.48388 11.4032V10.2419V7.42049L12.129 6.68705V9.08064H11.2581C10.2976 9.08064 9.51614 9.79695 9.51614 10.6774C9.51614 11.5579 10.2976 12.2742 11.2581 12.2742C12.2186 12.2742 13 11.5579 13 10.6774V9.51612V6.17742V4.43548C13 4.30813 12.9442 4.18714 12.8474 4.1044Z" fill="black"/>
<rect x="0.5" y="0.5" width="16" height="16" rx="3.5" stroke="black"/>
</svg>
