<svg width="37" height="46" viewBox="0 0 37 46" fill="none" xmlns="http://www.w3.org/2000/svg">
<rect x="1" y="0.5" width="35" height="39" rx="1.5" fill="white" stroke="black"/>
<rect x="5" y="4.5" width="27" height="20" rx="1.5" fill="white" stroke="black"/>
<rect x="3" y="39.5" width="31" height="6" fill="white" stroke="black"/>
<line x1="18.5" y1="31.5" x2="30.5" y2="31.5" stroke="black"/>
<path fill-rule="evenodd" clip-rule="evenodd" d="M7.5 7H8.5V8H7.5V7ZM7.5 10H8.5V11H7.5V10ZM8.5 13H7.5V14H8.5V13ZM7.5 16H8.5V17H7.5V16ZM8.5 19H7.5V20H8.5V19ZM10.5 7H11.5V8H10.5V7ZM11.5 10H10.5V11H11.5V10ZM10.5 13H11.5V14H10.5V13ZM11.5 16H10.5V17H11.5V16ZM10.5 19H11.5V20H10.5V19ZM14.5 7H13.5V8H14.5V7ZM13.5 10H14.5V11H13.5V10ZM14.5 19H13.5V20H14.5V19ZM16.5 7H17.5V8H16.5V7ZM17.5 10H16.5V11H17.5V10ZM19.5 7H20.5V8H19.5V7ZM23.5 7H22.5V8H23.5V7Z" fill="black"/>
</svg>
